<?xml version="1.0" encoding="utf-8"?>
<!-- Generator: Adobe Illustrator 25.4.1, SVG Export Plug-In . SVG Version: 6.00 Build 0)  -->
<svg version="1.1" id="main" xmlns="http://www.w3.org/2000/svg" xmlns:xlink="http://www.w3.org/1999/xlink" x="0px" y="0px"
	 viewBox="0 0 160 30" style="enable-background:new 0 0 160 30;" xml:space="preserve">
<style type="text/css">
	.st0{fill:#9A9999;}
</style>
<path id="wave" class="st0" d="M104.68,19.99L80.24,3.24L51.81,19.99L27.11,3.26L1.39,19.56L0,17.21L27.15,0l24.75,16.75L80.33,0
	l24.45,16.75L132.6,0.02L160,17.2l-1.38,2.36L132.57,3.23L104.68,19.99z M132.56,13.24l26.05,16.33l1.38-2.36l-27.4-17.18
	l-27.83,16.73L80.33,10.02L51.91,26.77L27.15,10.01L0,27.21l1.39,2.35l25.72-16.3L51.81,30l28.42-16.75L104.68,30L132.56,13.24z"/>
</svg>
